HIERARCHY
ROOT Hips
{
  OFFSET -31.5692 30.0904 122.763
  CHANNELS 6 Xposition Yposition Zposition Zrotation Xrotation Yrotation
  JOINT LeftUpLeg
  {
    OFFSET 8.64259 1.95398 -2.38835
    CHANNELS 3 Zrotation Xrotation Yrotation
    JOINT LeftLeg
    {
      OFFSET 43.7702 0 0
      CHANNELS 3 Zrotation Xrotation Yrotation
      JOINT LeftFoot
      {
        OFFSET 40.6238 0 0
        CHANNELS 3 Zrotation Xrotation Yrotation
        JOINT LeftToeBase
        {
          OFFSET 12.7242 0 0
          CHANNELS 3 Zrotation Xrotation Yrotation
          End Site
          {
            OFFSET 0 0 0
          }
        }
      }
    }
  }
  JOINT RightUpLeg
  {
    OFFSET -8.2249 1.95398 -2.59336
    CHANNELS 3 Zrotation Xrotation Yrotation
    JOINT RightLeg
    {
      OFFSET 43.5653 0 0
      CHANNELS 3 Zrotation Xrotation Yrotation
      JOINT RightFoot
      {
        OFFSET 40.6238 0 0
        CHANNELS 3 Zrotation Xrotation Yrotation
        JOINT RightToeBase
        {
          OFFSET 12.7242 0 0
          CHANNELS 3 Zrotation Xrotation Yrotation
          End Site
          {
            OFFSET 0 0 0
          }
        }
      }
    }
  }
  JOINT Spine
  {
    OFFSET 0.165834 0.87714 6.61349
    CHANNELS 3 Zrotation Xrotation Yrotation
    JOINT Spine1
    {
      OFFSET 7.38963 1.71661e-005 0
      CHANNELS 3 Zrotation Xrotation Yrotation
      JOINT Spine2
      {
        OFFSET 11.9445 1.14441e-005 0
        CHANNELS 3 Zrotation Xrotation Yrotation
        JOINT Spine3
        {
          OFFSET 14.7254 4.19617e-005 0
          CHANNELS 3 Zrotation Xrotation Yrotation
          JOINT Spine4
          {
            OFFSET 10.9679 0 0
            CHANNELS 3 Zrotation Xrotation Yrotation
            JOINT RightShoulder
            {
              OFFSET 2.46616 -1.6653 3.69651
              CHANNELS 3 Zrotation Xrotation Yrotation
              JOINT RightArm
              {
                OFFSET 13.0012 0 0
                CHANNELS 3 Zrotation Xrotation Yrotation
                JOINT RightForeArm
                {
                  OFFSET 28.7848 1.62311e-005 0
                  CHANNELS 3 Zrotation Xrotation Yrotation
                  JOINT RightHand
                  {
                    OFFSET 26.5688 1.62095e-005 0
                    CHANNELS 3 Zrotation Xrotation Yrotation
                    End Site
                    {
                      OFFSET 0 0 0
                    }
                  }
                }
              }
            }
            JOINT LeftShoulder
            {
              OFFSET 2.38034 -1.29275 -3.7523
              CHANNELS 3 Zrotation Xrotation Yrotation
              JOINT LeftArm
              {
                OFFSET 16.3182 6.07031e-005 0
                CHANNELS 3 Zrotation Xrotation Yrotation
                JOINT LeftForeArm
                {
                  OFFSET 27.0901 0 0
                  CHANNELS 3 Zrotation Xrotation Yrotation
                  JOINT LeftHand
                  {
                    OFFSET 24.5451 1.51738e-005 0
                    CHANNELS 3 Zrotation Xrotation Yrotation
                    End Site
                    {
                      OFFSET 0 0 0
                    }
                  }
                }
              }
            }
            JOINT Neck
            {
              OFFSET 5.0226 -0.0266342 0
              CHANNELS 3 Zrotation Xrotation Yrotation
              JOINT Head
              {
                OFFSET 6.69364 2.86102e-005 0
                CHANNELS 3 Zrotation Xrotation Yrotation
                End Site
                {
                  OFFSET 0 0 0
                }
              }
            }
          }
        }
      }
    }
  }
}
MOTION
Frames:	18
Frame Time:	0.0416667
41.1364 102.805 -294.301 -173.938 -83.7637 -176.962 -172.604 -6.95954 90.7645 -6.84377 7.0165 0.539477 66.5778 4.39253 -4.90897 24.795 -6.81615 12.3451 171.091 -3.07101 86.933 -13.9402 -8.88788 -0.876276 68.7557 -4.71963 2.84727 27.141 1.70058 -4.15415 -0.0286631 7.61579 -90.0569 11.6423 -0.0836155 -0.104628 -0.0287047 -0.0881419 -0.100848 -22.5638 -0.0483151 -0.124919 -2.55119 -0.048312 -0.124924 91.1307 -28.6584 -104.991 41.1 -5.51982 -3.72287 1.89414 -40.3956 -16.759 -32.5523 -1.88375 -3.78364 -87.9194 -54.3509 82.596 -28.2119 3.20727 -15.7008 3.27374 22.4012 -0.00667336 0.640398 0.320944 -25.3401 2.40222 -1.10564 -5.15724 1.41326 0.347161 13.9514 
40.5375 102.87 -294.185 -153.669 -83.5742 -155.731 -172.388 -6.0582 91.7203 -8.20537 3.53743 0.95391 68.4816 5.24354 -5.68389 21.5801 -7.87533 10.1407 171.753 -2.27758 88.2247 -15.1193 -10.4083 -0.779924 67.2892 -4.08567 0.214121 28.3448 -0.0650161 1.26606 0.148689 7.52277 -90.0304 11.8286 0.281458 -0.0902274 0.157715 0.277218 -0.102541 -22.3777 0.295562 -0.00146005 -2.36503 0.295562 -0.00147231 89.9243 -30.2455 -106.816 40.8578 -7.28039 -2.91556 3.86203 -35.8654 -16.5381 -30.9564 -1.95716 -2.7876 -87.6017 -52.8884 82.8125 -24.6837 7.25274 -12.2207 -2.38787 16.7754 -0.00644401 2.41365 -0.25888 -23.4457 3.97854 -0.212988 1.92449 -6.06142 -0.585626 -0.799928 
39.259 102.717 -293.639 -148.377 -83.03 -150.809 -172.198 -6.70477 92.9595 -7.99489 2.77543 1.11347 68.3469 6.3114 -5.21558 22.466 -7.28428 10.0326 171.788 -1.40425 88.3465 -17.895 -10.3379 -0.811638 70.2728 -5.43101 -0.082453 24.8227 1.1521 2.91823 0.282106 7.57794 -89.9784 11.7181 0.571312 -0.0168179 0.047235 0.570015 -0.0419458 -22.4889 0.54995 0.155672 -2.47625 0.549943 0.155662 89.8556 -30.4792 -106.86 40.7782 -7.09485 -2.58925 4.86397 -31.4991 -15.503 -22.7353 0.114148 -11.6409 -87.8161 -52.9463 82.51 -21.8468 9.70181 -9.9248 -4.946 13.0265 -0.00655668 2.58062 -0.445472 -22.9795 3.16147 -0.196313 1.99519 -5.31371 -0.52217 -0.221132 
37.2675 101.667 -293.821 -153.394 -83.6066 -155.239 -172.453 1.17467 91.2458 -19.8911 3.00186 1.39916 70.6955 8.02354 -4.33124 27.2385 -5.6412 13.3414 171.802 0.501262 90.1541 -22.573 -10.27 0.430873 72.4619 -6.36521 -0.937034 25.6359 1.24023 0.976189 0.325991 7.67818 -90.0495 11.5177 0.625482 -0.162035 -0.153124 0.617749 -0.189413 -22.6895 0.645259 0.0334466 -2.67681 0.645262 0.0334463 89.9298 -29.3627 -107.147 41.3616 -7.67998 -2.27341 4.98745 -32.001 -15.8604 -23.5647 -0.314616 -9.51321 -87.4559 -52.5409 82.9682 -21.2839 8.98186 -9.66271 -4.3588 11.7044 -0.00335688 2.96469 -0.501387 -21.8782 4.31651 0.00936577 3.34343 -5.32871 -0.56738 -0.961195 
35.56 101.023 -294.008 -175.155 -83.5197 -175.857 -174.566 10.6396 94.1758 -39.011 4.77575 3.21439 70.5425 6.9016 -2.22444 23.7618 -7.68393 12.8185 171.868 0.375862 91.8181 -24.1715 -7.89212 1.64883 73.356 -6.33678 -0.557578 25.8216 0.781021 2.60447 0.349958 7.91199 -90.2941 11.0512 0.560331 -0.639111 -0.619803 0.53165 -0.663159 -23.1553 0.726484 -0.441166 -3.14259 0.726494 -0.441166 89.892 -28.4239 -107.596 40.8019 -6.33984 -2.40275 5.36678 -30.6101 -14.1067 -24.1256 -0.284994 -9.26829 -87.4448 -54.3669 83.2777 -19.3975 8.27858 -8.55311 -4.11132 11.537 -0.0508008 4.34149 -0.915392 -23.2824 4.72868 -0.310268 5.9719 -4.33409 -1.36361 -2.8359 
34.4042 101.263 -292.937 168.386 -83.0395 167.175 -176.786 16.9597 91.9175 -47.2671 8.23366 3.73329 68.7292 5.88105 1.44354 20.5998 -8.29125 9.71052 171.863 -1.71962 91.9989 -22.8209 -3.98494 1.70027 75.5399 -6.71973 0.82876 22.8791 2.30248 1.80132 0.52282 8.05182 -90.3154 10.7748 0.895563 -0.71016 -0.896033 0.863434 -0.748892 -23.433 1.06759 -0.40816 -3.42036 1.06759 -0.408165 89.5478 -28.6847 -108.188 39.415 -5.89139 -1.91191 6.26121 -29.6137 -12.6241 -25.3686 -0.22189 -9.23076 -87.2245 -55.072 83.6995 -19.4179 7.51022 -6.97302 -2.75391 12.2697 -2.5046 4.88201 -0.969233 -22.8642 3.85481 -1.46638 5.45706 -3.25878 -2.40017 -3.46816 
34.0627 101.278 -291.103 168.847 -83.3316 165.511 -177.36 18.6472 87.5923 -40.3659 10.0247 1.95075 68.2538 5.09647 -2.3578 20.0047 -8.6922 9.78669 170.806 -2.71565 89.8528 -21.7263 -5.50631 1.46045 75.0538 -6.48389 0.800047 27.0583 -0.0239218 3.86055 0.864428 8.08177 -90.0424 10.7123 1.70196 -0.240247 -0.957598 1.68974 -0.314949 -23.5016 1.69546 0.282525 -3.48891 1.69545 0.282517 89.6353 -29.3821 -107.727 39.6609 -6.29901 -2.61814 7.15637 -30.3343 -11.4441 -25.0596 -0.485972 -8.01071 -87.627 -54.0795 82.9699 -20.3766 6.45519 -5.04234 -2.35677 11.3858 -1.25302 4.05678 -0.845215 -23.0916 3.36858 -2.6847 3.64887 -3.57926 -3.25971 -3.37622 
33.9709 101.072 -288.632 166.395 -83.7678 161.871 -178.328 17.4999 83.987 -23.6516 10.2847 0.317302 65.4583 4.5641 -0.571657 17.3524 -8.38305 5.85033 170.64 -4.2031 88.9472 -20.8101 -4.93481 0.871296 75.5525 -6.78014 0.872126 29.0639 -1.00414 4.43581 0.925602 8.13598 -89.981 10.604 1.85228 -0.129363 -1.06565 1.84479 -0.210788 -23.611 1.80549 0.433499 -3.5984 1.80549 0.433483 89.5203 -28.5329 -108.303 39.9269 -6.62962 -3.92431 5.92942 -32.3119 -13.225 -24.7943 -0.420878 -8.82199 -87.5965 -55.461 83.2345 -19.9771 6.42084 -2.09114 -3.08037 9.94488 -1.27147 3.07915 -0.600865 -21.1212 3.68423 -2.54735 5.89082 -2.63394 -3.55078 -4.15508 
33.918 100.626 -284.97 166.242 -83.3567 161.945 -179.264 14.948 82.0488 -8.44397 7.0591 -0.6271 62.4646 3.54158 -0.770681 15.4353 -9.28693 5.41453 170.762 -8.03142 89.2394 -19.0523 -4.25419 0.465844 76.0458 -7.31211 0.827845 30.871 -1.68645 4.03873 0.930178 8.19959 -90.0546 10.4779 1.82783 -0.270626 -1.19183 1.81415 -0.35084 -23.7372 1.82463 0.29142 -3.72453 1.82463 0.291414 89.3938 -28.7069 -108.485 39.1207 -6.84893 -5.25806 4.20883 -32.2699 -15.9328 -25.1106 -0.128007 -10.3701 -87.7299 -56.4206 83.1972 -20.5929 7.28544 0.602485 -3.70728 8.16312 -0.381864 3.63282 -0.487848 -17.2598 3.10491 -2.26186 6.48822 -1.89814 -3.36253 -3.82139 
33.863 99.6179 -280.377 -176.198 -84.5238 179.603 -178.936 17.5486 80.9713 -8.00353 3.72182 -1.91028 62.555 3.05507 -0.851955 15.1083 -9.21574 4.91 170.259 -9.31576 88.4952 -20.6034 -4.94619 0.110343 80.2538 -9.54479 2.10821 29.3708 -0.94244 3.45216 1.09641 8.09174 -90.0645 10.6946 2.15378 -0.324916 -0.97461 2.1374 -0.419442 -23.5239 2.1518 0.337715 -3.51125 2.15181 0.337712 89.2765 -28.6969 -108.725 38.6524 -6.99395 -6.96381 4.75197 -32.3049 -14.9451 -25.4469 -0.0177742 -10.9093 -87.4909 -57.6277 83.7147 -21.6598 6.20592 3.24505 -3.68647 10.1555 0.025478 1.26033 -0.164383 -18.9192 2.84388 -1.83177 6.67287 -2.01068 -2.95917 -4.34853 
33.7581 98.7566 -273.999 -138.712 -83.2729 -142.899 -178.403 18.3537 80.9428 -12.7812 1.03245 -1.76472 58.8597 0.0749001 -1.46641 12.7011 -10.2822 4.27081 169.648 -14.4169 87.3103 -17.3445 -7.80803 -1.10209 80.4747 -11.0431 1.42908 31.0079 -1.4447 2.22812 1.39459 7.99013 -89.9693 10.9002 2.79074 -0.203993 -0.767845 2.77905 -0.326725 -23.3262 2.72294 0.644809 -3.31353 2.72294 0.644801 89.3332 -28.3655 -108.751 39.3662 -7.56076 -7.65766 5.24586 -32.9025 -14.4183 -25.0532 -0.163179 -10.3287 -86.9914 -58.2919 84.4987 -22.149 5.93412 6.1353 -3.13028 7.92515 -0.146981 1.25353 -0.260368 -19.17 3.45623 -1.47333 6.08194 -2.90059 -2.50758 -4.61974 
33.9305 98.8985 -266.25 -122.472 -81.0554 -128.705 -177.628 19.373 78.48 -23.1553 -0.693551 -2.1644 62.598 1.10007 -0.365949 10.8357 -11.5271 4.54641 166.15 -16.8432 82.0126 -18.3127 -13.3971 -2.08446 75.7852 -9.45671 -0.328323 37.8902 -4.5311 3.59744 1.43292 7.87563 -89.5813 11.1191 3.04658 0.537515 -0.548302 3.06729 0.402788 -23.107 2.74409 1.42892 -3.09438 2.74409 1.42891 88.794 -28.6843 -109.699 40.8525 -7.47792 -6.61334 5.07628 -33.2814 -14.4704 -25.9357 -0.45163 -8.76407 -86.7669 -58.9595 84.8989 -19.9053 5.50697 5.1585 -2.60241 7.47238 -0.0665023 0.572926 -0.113332 -18.2694 3.65302 -0.881282 5.75256 -2.66751 -1.8889 -4.9139 
33.7129 99.6825 -258.349 -122.333 -79.2873 -128.898 -176.468 13.9834 77.9713 -25.9601 -1.48047 -3.00858 68.4878 4.52498 -0.688552 12.1458 -11.0722 5.12197 164.773 -11.828 78.8339 -33.4343 -20.5539 -3.38979 66.1422 -3.44409 -0.870535 41.634 -6.23949 5.67806 1.38626 7.8021 -89.4533 11.2615 3.01332 0.790097 -0.406155 3.04516 0.656584 -22.9621 2.63648 1.65969 -2.94941 2.63649 1.6597 89.382 -28.1858 -108.728 41.9237 -7.72301 -4.71834 5.52883 -34.5887 -14.2623 -27.0512 -0.450325 -8.93305 -86.5505 -57.6582 85.0193 -18.9568 5.76217 0.515416 -3.3099 7.17144 -0.0236231 0.404293 -0.0333029 -17.4761 2.67989 -0.507231 4.36979 -4.05022 -1.19444 -3.9232 
33.3222 100.208 -252.122 -126.313 -77.4686 -131.769 -176.058 7.93311 78.6795 -26.3057 -1.6423 -2.83682 72.4036 6.60063 -0.566519 13.6786 -10.3948 5.55186 168.316 -0.573508 79.6044 -57.0868 -23.718 -5.67714 58.0067 2.10725 0.666238 25.5989 0.265288 5.21562 1.09067 7.97246 -89.6 10.9239 2.35652 0.573445 -0.745039 2.37948 0.469107 -23.2932 2.07519 1.25542 -3.28056 2.0752 1.25542 89.7492 -27.5604 -108.244 40.6052 -7.35272 -3.722 3.64017 -32.4267 -17.2245 -24.5499 -0.145592 -10.389 -86.8416 -57.5879 84.605 -17.3774 5.98558 -3.71999 -3.48319 7.56906 -0.073437 2.56643 -0.382338 -17.4216 3.22767 0.784595 5.15816 -3.28538 -0.0982583 -4.2372 
32.5374 100.647 -246.942 -131.552 -76.5557 -135.529 -175.936 1.96107 79.933 -24.8186 -1.2221 -2.02178 75.0957 8.04459 -1.05926 15.0053 -10.0999 6.48426 173.426 8.25512 83.449 -65.03 -20.174 -6.40951 63.8236 -1.7544 -1.55438 25.3389 0.812426 3.37451 0.788327 8.18697 -89.6241 10.4952 1.74286 0.591803 -1.17468 1.76722 0.514493 -23.716 1.48442 1.08833 -3.70333 1.48442 1.08832 89.403 -29.7981 -108.025 38.4801 -5.82614 -4.12985 2.92283 -27.7661 -17.7609 -24.2969 0.150796 -11.0428 -87.7889 -54.8849 82.8689 -15.7042 6.12255 -13.5735 -3.68163 8.33034 -0.00173359 4.12707 -0.564316 -18.0038 1.95656 1.19428 1.29296 -2.06061 0.942346 -2.1525 
31.5008 101.247 -242.135 -140.1 -78.044 -140.9 -175.193 -2.4899 83.3704 -23.2685 1.32593 -0.417548 77.0966 8.86673 -2.26057 17.5968 -9.89127 9.17493 177.28 12.9185 89.286 -51.2485 -10.6115 -4.94711 69.9052 -5.70197 -0.724217 24.295 1.44656 2.65793 0.343855 8.2149 -89.9457 10.4459 0.709927 0.0456916 -1.22488 0.711251 0.0143912 -23.7614 0.663376 0.256949 -3.74876 0.663379 0.256945 89.3528 -30.0929 -108.002 38.1839 -5.05089 -2.89812 1.74525 -31.4673 -18.555 -26.6736 -0.0129643 -10.5504 -88.0872 -53.3763 82.1912 -14.9841 6.25801 -22.0181 -3.28497 8.82284 0.109974 2.09675 -0.354998 -20.0199 -0.035958 1.63102 -0.925858 -2.06697 1.73148 -0.727699 
30.3351 101.104 -236.716 -145.181 -79.7649 -144.07 -174.471 -6.14757 85.7377 -21.5546 3.04443 0.752795 80.3363 11.1769 -1.71693 14.8615 -9.92285 5.98725 179.107 15.2185 92.7106 -28.1315 -7.4499 -2.87195 64.8741 -3.31569 -0.912858 23.5235 1.64402 3.23085 0.0494102 8.24596 -90.1464 10.3819 0.0314623 -0.293573 -1.28909 0.0185079 -0.294697 -23.824 0.118232 -0.270554 -3.81137 0.11824 -0.270555 88.9835 -31.1298 -108.31 37.4071 -4.52076 -0.910426 1.15507 -30.5077 -19.7172 -24.9378 0.362091 -12.705 -88.1978 -51.0821 81.6247 -15.6499 8.54825 -27.1416 -3.72862 7.90428 -1.62934 6.33401 -1.2472 -21.7785 1.14477 1.58944 -3.86483 -2.7028 2.15511 0.98496 
29.2944 99.8636 -229.811 -147.438 -80.918 -145.824 -172.804 -11.2697 87.7706 -19.5028 5.41651 0.511582 83.5302 13.3987 -2.12903 18.6273 -9.10336 8.86251 178.081 14.4273 94.5971 -6.65833 -10.6077 0.167311 60.8241 -1.77385 -0.0509143 26.8533 0.348267 2.502 -0.0959201 8.22123 -90.2122 10.4307 -0.288309 -0.396251 -1.24031 -0.305469 -0.383182 -23.7751 -0.155897 -0.46458 -3.7624 -0.155892 -0.464577 89.0721 -32.2635 -107.697 37.8856 -3.93727 0.962457 1.59981 -30.3448 -18.7367 -24.7381 -0.0434158 -10.497 -88.7245 -51.1599 80.8588 -17.1704 8.15564 -29.9217 -2.33008 13.5702 -3.51206 8.10999 -1.76482 -24.7858 2.06125 1.02538 -5.56595 -3.0169 1.89297 1.2678 
